<svg xmlns="http://www.w3.org/2000/svg">
	<symbol  viewBox="0 0 70 70" fill="none" id="detail_one">
		<path d="M67.3162 48.3385L48.8467 29.7337L50.8966 19.6373C51.4255 19.8438 51.9878 19.9517 52.5556 19.9558H52.5696C55.1776 19.9866 57.3169 17.8974 57.3478 15.2893C57.3787 12.6812 55.2894 10.542 52.6813 10.5111C50.0732 10.4803 47.934 12.5695 47.903 15.1776C47.8965 15.7357 47.9888 16.2905 48.1759 16.8163L37.3259 18.1405L19.6276 0.35C19.4104 0.128479 19.1141 0.00247917 18.8039 0C18.4976 0.00160417 18.2044 0.123521 17.9872 0.3395L14.6786 3.6295C14.2231 4.08508 14.2231 4.82358 14.6786 5.27917L16.4589 7.08517C9.56156 19.7681 11.8018 35.4741 21.9702 45.7228C22.0636 45.8121 22.1718 45.8843 22.2899 45.9363C22.2164 46.3311 22.178 46.7317 22.1756 47.1333V60.6667H8.17556C4.95556 60.6705 2.34602 63.28 2.34222 66.5V68.8333C2.34222 69.4776 2.8646 70 3.50889 70H57.1756C57.8199 70 58.3422 69.4776 58.3422 68.8333V66.5C58.3384 63.28 55.7289 60.6705 52.5089 60.6667H38.5089V54.6688C40.7021 55.1288 42.9367 55.3633 45.1776 55.3688C50.5547 55.363 55.8463 54.0225 60.5776 51.4675L62.3672 53.2677C62.5844 53.4892 62.8807 53.6152 63.1909 53.6177C63.4971 53.6161 63.7904 53.4941 64.0076 53.2782L67.3162 49.9882C67.7717 49.5326 67.7717 48.7941 67.3162 48.3385ZM50.9246 13.6348C51.8382 12.726 53.3156 12.7301 54.2243 13.6437C55.1332 14.5574 55.1291 16.0348 54.2154 16.9435C53.7781 17.3785 53.1863 17.6226 52.5694 17.6225H52.5624C51.2738 17.6158 50.2345 16.5658 50.2412 15.2771C50.2444 14.6602 50.4917 14.0699 50.9291 13.6348H50.9246ZM48.1782 21.301L46.8692 27.7445L44.2979 25.158L48.1782 21.301ZM46.8529 19.3282L42.6529 23.5037L39.4037 20.237L46.8529 19.3282ZM52.5089 63C54.4419 63 56.0089 64.567 56.0089 66.5V67.6667H4.67556V66.5C4.67556 64.567 6.24254 63 8.17556 63H52.5089ZM36.1756 58.3333V60.6667H24.5089V58.3333H36.1756ZM24.5089 56V47.1333C24.5089 44.303 27.1257 42 30.3422 42C33.5587 42 36.1756 44.303 36.1756 47.1333V56H24.5089ZM38.5089 52.29V47.1333C38.5089 43.0162 34.8456 39.6667 30.3422 39.6667C27.4305 39.622 24.7078 41.1041 23.1649 43.5738C14.2886 34.2249 12.2898 20.2875 18.1805 8.82073L58.8719 49.7455C52.5885 52.9419 45.3857 53.8418 38.5089 52.29ZM63.2037 50.7943L61.5599 49.1412L18.7922 6.11567L17.1414 4.46133L18.7922 2.81633L36.1499 20.272C36.1581 20.272 36.1627 20.2872 36.1709 20.293L64.8592 49.1493L63.2037 50.7943Z" fill="#212121"/>
		<path d="M30.3527 44.3335H30.3422C28.4092 44.3306 26.8399 45.8952 26.837 47.8283C26.8341 49.7613 28.3987 51.3306 30.3317 51.3335H30.3422C32.2752 51.3364 33.8446 49.7718 33.8475 47.8388C33.8504 45.9057 32.2857 44.3364 30.3527 44.3335ZM31.1694 48.6607C30.9498 48.8791 30.6521 49.0013 30.3422 49.0002C29.6979 48.9968 29.1783 48.4718 29.1817 47.8275C29.1833 47.5191 29.307 47.2239 29.5256 47.0063C29.7427 46.7904 30.036 46.6684 30.3422 46.6668C30.9865 46.6702 31.5061 47.1952 31.5028 47.8395C31.5012 48.1479 31.3775 48.4431 31.1589 48.6607H31.1694Z" fill="#2196F3"/>
</symbol>

	<symbol  viewBox="0 0 70 70" fill="none" id="detail_two">
		<path d="M68.4614 33.4715C68.4576 14.9819 53.4656 -0.00373771 34.9754 6.99302e-07C16.4858 0.00373911 1.50017 14.9963 1.50391 33.4859C1.50711 48.0502 10.9252 60.9413 24.7995 65.3713C24.9319 65.413 25.0697 65.4343 25.2081 65.4338C25.4719 65.4333 25.7304 65.3628 25.9573 65.2287C26.2527 65.0541 26.4732 64.7764 26.5768 64.449L35.0315 37.6521C37.3429 37.6404 39.2068 35.7568 39.1945 33.4459C39.1827 31.1345 37.2997 29.2706 34.9883 29.2824C34.3666 29.285 33.753 29.4282 33.1944 29.7011L22.0251 18.5302C21.4707 17.9951 20.5879 18.0106 20.0528 18.5644C19.5305 19.1054 19.5305 19.962 20.0528 20.503L31.2162 31.6792C30.3596 33.4277 30.8493 35.5383 32.3895 36.7303L24.3338 62.2647C8.41354 56.4002 0.261689 38.7405 6.12618 22.8203C11.9907 6.90002 29.6503 -1.25183 45.5706 4.61266C61.4909 10.4771 69.6427 28.1374 63.7782 44.0571C60.913 51.8351 55.0261 58.1252 47.4548 61.4989L46.5842 57.3989C46.4251 56.6454 45.6844 56.1636 44.9308 56.3233C44.6931 56.3741 44.4726 56.4857 44.291 56.6475L35.8978 64.1409C35.322 64.653 35.2708 65.5347 35.7835 66.1105C35.9501 66.2974 36.1637 66.4362 36.403 66.5126L47.1188 69.9327C47.8521 70.1682 48.6377 69.765 48.8732 69.0312C48.948 68.7994 48.9603 68.5527 48.9101 68.3145L48.0545 64.2915C60.4452 59.0678 68.4902 46.918 68.4614 33.4715ZM34.9829 32.0766C35.753 32.0766 36.3779 32.7014 36.3779 33.4715C36.3779 34.2422 35.753 34.8665 34.9829 34.8665C34.2123 34.8665 33.588 34.2422 33.588 33.4715C33.588 32.7014 34.2123 32.0766 34.9829 32.0766ZM39.5774 64.5916L44.3551 60.3298L45.6737 66.543L39.5774 64.5916Z" fill="#212121"/>
		<path d="M33.5879 6.96722V9.75714C33.5879 10.5278 34.2122 11.1521 34.9828 11.1521C35.753 11.1521 36.3778 10.5278 36.3778 9.75714V6.96722C36.3778 6.19711 35.753 5.57227 34.9828 5.57227C34.2122 5.57227 33.5879 6.19711 33.5879 6.96722Z" fill="#2196F3"/>
		<path d="M8.4787 32.0767C7.70805 32.0767 7.08374 32.7015 7.08374 33.4716C7.08374 34.2423 7.70805 34.8666 8.4787 34.8666H11.2686C12.0393 34.8666 12.6636 34.2423 12.6636 33.4716C12.6636 32.7015 12.0393 32.0767 11.2686 32.0767H8.4787Z" fill="#2196F3"/>
		<path d="M61.4865 34.8666C62.2572 34.8666 62.8815 34.2423 62.8815 33.4716C62.8815 32.7015 62.2572 32.0767 61.4865 32.0767H58.6966C57.9265 32.0767 57.3016 32.7015 57.3016 33.4716C57.3016 34.2423 57.9265 34.8666 58.6966 34.8666H61.4865Z" fill="#2196F3"/>
</symbol>

	<symbol  viewBox="0 0 70 70" fill="none" id="detail_three">
		<path d="M32.6495 32.7349H34.9816V43.2294H32.6495V32.7349Z" fill="#2196F3"/>
		<path d="M41.978 37.3994H44.3101V43.2297H41.978V37.3994Z" fill="#2196F3"/>
		<path d="M23.3212 40.8975H25.6533V43.2296H23.3212V40.8975Z" fill="#2196F3"/>
		<path d="M16.3248 39.7314H18.6569V43.2296H16.3248V39.7314Z" fill="#2196F3"/>
		<path d="M3.49817 61.8866H59.4689C61.4007 61.8866 62.967 60.3203 62.967 58.3884V53.7242C62.967 51.7923 61.4007 50.226 59.4689 50.226H58.3028V21.1469L64.9262 14.8725C66.4635 15.6304 68.3242 15.1703 69.3302 13.7816C70.3369 12.3935 70.1957 10.4822 68.9966 9.2569C67.7975 8.03163 65.8901 7.84886 64.4798 8.82418C63.0701 9.80007 62.569 11.6499 63.2933 13.2037L58.3028 17.9346V15.2443C58.3028 13.3125 56.7365 11.7462 54.8046 11.7462H8.16239C6.23054 11.7462 4.66422 13.3125 4.66422 15.2443V50.226H3.49817C1.56632 50.226 0 51.7923 0 53.7242V58.3884C0 60.3203 1.56632 61.8866 3.49817 61.8866ZM66.4652 10.5801C67.1091 10.5801 67.6312 11.1022 67.6312 11.7462C67.6312 12.3901 67.1091 12.9122 66.4652 12.9122C65.8212 12.9122 65.2991 12.3901 65.2991 11.7462C65.2991 11.1022 65.8212 10.5801 66.4652 10.5801ZM6.99634 15.2443C6.99634 14.6004 7.51844 14.0783 8.16239 14.0783H54.8046C55.4486 14.0783 55.9707 14.6004 55.9707 15.2443V20.1414L53.6386 22.3574V17.5764C53.6386 16.9325 53.1165 16.4104 52.4725 16.4104H10.4945C9.85055 16.4104 9.32845 16.9325 9.32845 17.5764V46.7278C9.32845 47.3718 9.85055 47.8939 10.4945 47.8939H52.4725C53.1165 47.8939 53.6386 47.3718 53.6386 46.7278V25.5652L55.9707 23.3555V50.226H6.99634V15.2443ZM17.4908 30.4031C15.9131 30.3985 14.5279 31.4495 14.1083 32.9703C13.6886 34.4911 14.3383 36.1041 15.6951 36.9092C17.0513 37.7143 18.7793 37.5121 19.9129 36.415L23.9662 38.4487C24.4371 38.6844 25.0081 38.574 25.3583 38.1806L33.9745 28.4871L42.4443 34.8338C42.8987 35.1743 43.5329 35.1379 43.9452 34.7479L51.3065 27.7749V45.5618H11.6606V18.7425H51.3065V24.562L43.0564 32.3748L34.5154 25.9717C34.0303 25.6084 33.3476 25.6768 32.9445 26.1294L24.2099 35.9572L20.9446 34.3243C20.9685 34.1842 20.9833 34.043 20.989 33.9012C20.989 31.9694 19.4227 30.4031 17.4908 30.4031ZM18.6569 33.9012C18.6569 34.5452 18.1348 35.0673 17.4908 35.0673C16.8469 35.0673 16.3248 34.5452 16.3248 33.9012C16.3248 33.2573 16.8469 32.7352 17.4908 32.7352C18.1348 32.7352 18.6569 33.2573 18.6569 33.9012ZM25.6532 52.5581H37.3138V53.7242C37.3138 54.3681 36.7917 54.8902 36.1477 54.8902H26.8193C26.1753 54.8902 25.6532 54.3681 25.6532 53.7242V52.5581ZM2.33211 53.7242C2.33211 53.0802 2.85422 52.5581 3.49817 52.5581H23.3211V53.7242C23.3211 55.656 24.8874 57.2223 26.8193 57.2223H36.1477C38.0796 57.2223 39.6459 55.656 39.6459 53.7242V52.5581H59.4689C60.1128 52.5581 60.6349 53.0802 60.6349 53.7242V58.3884C60.6349 59.0324 60.1128 59.5545 59.4689 59.5545H3.49817C2.85422 59.5545 2.33211 59.0324 2.33211 58.3884V53.7242Z" fill="#212121"/>
	</symbol>

	<symbol  viewBox="0 0 70 70" fill="none" id="detail_four">
		<path d="M69.9432 9.89619C69.8055 9.47495 69.4416 9.16706 69.0017 9.1028L64.8227 8.49494L62.9525 4.7079C62.5606 3.90987 61.2527 3.90987 60.8607 4.7079L58.9905 8.49494L54.8114 9.10293C54.3715 9.16706 54.0076 9.47399 53.8687 9.89632C53.7322 10.3187 53.8453 10.783 54.1638 11.0922L57.1891 14.0405L56.4751 18.2032C56.4005 18.6407 56.5801 19.0829 56.9383 19.3443C57.3012 19.608 57.7748 19.6406 58.168 19.4329L61.9061 17.467L65.6441 19.4329C65.8145 19.5227 66.0024 19.567 66.1879 19.567C66.4293 19.567 66.6709 19.4924 66.874 19.3441C67.2333 19.0829 67.4129 18.6406 67.3372 18.2031L66.6232 14.0403L69.6484 11.0921C69.9653 10.7817 70.0798 10.3185 69.9432 9.89619ZM64.5556 12.7989C64.2815 13.0661 64.1554 13.4534 64.2207 13.8314L64.6384 16.2686L62.4498 15.1182C62.2795 15.0284 62.0928 14.9841 61.9061 14.9841C61.7194 14.9841 61.5339 15.0284 61.3623 15.1182L59.1736 16.2686L59.5912 13.8314C59.6566 13.4534 59.5305 13.0673 59.2564 12.7989L57.4842 11.0723L59.932 10.7164C60.3123 10.6616 60.6402 10.4224 60.8105 10.0782L61.9048 7.86151L62.9991 10.0782C63.1695 10.4223 63.4974 10.6616 63.8777 10.7164L66.3254 11.0723L64.5556 12.7989Z" fill="#2196F3"/>
		<path d="M57.1669 44.8921H54.8335V47.2255H57.1669V44.8921Z" fill="#2196F3"/>
		<path d="M57.1669 49.5591H54.8335V51.8925H57.1669V49.5591Z" fill="#2196F3"/>
		<path d="M59.5004 47.2256H57.167V49.559H59.5004V47.2256Z" fill="#2196F3"/>
		<path d="M54.8337 47.2256H52.5002V49.559H54.8337V47.2256Z" fill="#2196F3"/>
		<path d="M49.0003 57.7261H46.6669V60.0595H49.0003V57.7261Z" fill="#2196F3"/>
		<path d="M49.0003 62.3926H46.6669V64.726H49.0003V62.3926Z" fill="#2196F3"/>
		<path d="M51.3337 60.0591H49.0002V62.3925H51.3337V60.0591Z" fill="#2196F3"/>
		<path d="M46.6668 60.0591H44.3334V62.3925H46.6668V60.0591Z" fill="#2196F3"/>
		<path d="M35 53.0591H32.6666V55.3925H35V53.0591Z" fill="#2196F3"/>
		<path d="M35 57.7261H32.6666V60.0595H35V57.7261Z" fill="#2196F3"/>
		<path d="M37.3334 55.3926H35V57.726H37.3334V55.3926Z" fill="#2196F3"/>
		<path d="M32.6665 55.3926H30.3331V57.726H32.6665V55.3926Z" fill="#2196F3"/>
		<path d="M12.8331 13.3916H10.4996V15.725H12.8331V13.3916Z" fill="#2196F3"/>
		<path d="M12.8331 18.0586H10.4996V20.392H12.8331V18.0586Z" fill="#2196F3"/>
		<path d="M15.1663 15.7251H12.8329V18.0585H15.1663V15.7251Z" fill="#2196F3"/>
		<path d="M10.4996 15.7251H8.16614V18.0585H10.4996V15.7251Z" fill="#2196F3"/>
		<path d="M54.0635 30.974C53.4347 30.1258 52.5119 29.5798 51.4642 29.4327C50.4118 29.2834 49.3734 29.5599 48.5334 30.2028L45.7952 32.3015L45.794 32.3028L41.6428 35.4027L38.6724 34.2196C43.9691 31.8431 47.6711 26.5452 47.6711 20.3944C47.6711 12.0316 40.8401 5.22754 32.4436 5.22754C24.047 5.22754 17.2161 12.0316 17.2161 20.3944C17.2161 23.4255 18.1226 26.2441 19.6662 28.616L13.6204 28.5635C13.6168 28.5635 13.6134 28.5635 13.6099 28.5635C13.5911 28.5635 13.5761 28.5728 13.5586 28.574C13.4431 28.5786 13.3298 28.602 13.2191 28.6417C13.1911 28.6522 13.162 28.6581 13.1352 28.6708C13.1212 28.6767 13.1071 28.6778 13.0932 28.6847L6.02075 32.1766C6.01952 32.1766 6.01843 32.1766 6.01843 32.1777L1.8766 34.1694C1.83107 34.1893 1.78445 34.2161 1.73892 34.2464C0.0880191 35.3454 -0.474314 37.5038 0.429958 39.2677C0.911763 40.2058 1.73195 40.8965 2.73999 41.2126C3.12856 41.3339 3.52518 41.3935 3.91949 41.3935C4.55305 41.3935 5.18074 41.2383 5.75578 40.9315L8.79154 39.3168L13.7441 36.7595L16.7122 36.742L4.80844 48.5886C4.80735 48.5898 4.80612 48.5898 4.80489 48.5909L1.87647 51.5076C1.18466 52.1959 0.8043 53.1094 0.8043 54.0836C0.8043 55.0567 1.18466 55.9724 1.87647 56.6621C2.587 57.369 3.52149 57.7237 4.45598 57.7237C5.3917 57.7237 6.32495 57.369 7.03782 56.6621L9.91251 53.799L13.7206 50.9557L15.6912 52.9181L11.8375 56.7553C11.8364 56.7565 11.8352 56.7565 11.834 56.7576L8.90556 59.6743C8.21375 60.3627 7.8334 61.2761 7.8334 62.2504C7.8334 63.2234 8.21375 64.1392 8.90556 64.8288C9.6161 65.5358 10.5518 65.8904 11.4863 65.8904C12.4208 65.8904 13.3565 65.5358 14.0681 64.8288L16.9977 61.9121L21.6842 57.2455C21.6854 57.2442 21.6854 57.2431 21.6865 57.2419L23.8951 55.0544L23.8869 55.0462C23.9008 55.0322 23.9207 55.0274 23.9347 55.0124L35.2353 42.635L42.8281 43.7154C42.8829 43.7236 42.9377 43.727 42.9925 43.727C43.1338 43.727 43.2702 43.6933 43.402 43.6431C43.4406 43.6292 43.4743 43.6104 43.5106 43.5918C43.5526 43.5708 43.5968 43.5591 43.6366 43.5323L50.6659 38.8657C50.6916 38.8482 50.7055 38.8201 50.73 38.8015C50.758 38.7794 50.793 38.7701 50.8186 38.7455L53.5999 36.1403C55.0471 34.7843 55.2466 32.563 54.0635 30.974ZM4.66024 38.8724C4.28111 39.0754 3.85058 39.1161 3.43878 38.9856C3.03039 38.8584 2.69912 38.5795 2.50538 38.2027C2.15305 37.5166 2.35718 36.6813 2.97433 36.2298L5.84793 34.8473L6.53974 36.8691L6.83027 37.7184L4.66024 38.8724ZM12.3102 34.8742L8.92333 36.6243L8.36456 34.9909L7.96328 33.8171L12.3967 31.6283L12.3102 34.8742ZM45.3402 20.3921C45.3402 22.401 44.8607 24.2959 44.03 25.9909L34.8832 21.8364C34.7875 20.5822 34.1366 19.4844 33.1589 18.8006L36.3614 8.16868C41.5626 9.82314 45.3402 14.6754 45.3402 20.3921ZM19.5519 20.3921C19.5519 13.3161 25.3363 7.55849 32.446 7.55849C32.9991 7.55849 33.5403 7.60511 34.0759 7.67279L30.9433 18.0715C30.9014 18.0703 30.8617 18.0587 30.8185 18.0587C28.5597 18.0587 26.7222 19.8903 26.7222 22.1421C26.7222 24.3938 28.5597 26.2255 30.8185 26.2255C32.3375 26.2255 33.65 25.3868 34.3582 24.1593L42.8073 27.9977C40.4564 31.1617 36.6938 33.2256 32.4459 33.2256C25.3363 33.2256 19.5519 27.4681 19.5519 20.3921ZM32.5814 22.1421C32.5814 23.1069 31.7903 23.8921 30.8185 23.8921C29.8467 23.8921 29.0556 23.1069 29.0556 22.1421C29.0556 21.1773 29.8467 20.3921 30.8185 20.3921C31.7903 20.3921 32.5814 21.1773 32.5814 22.1421ZM5.39183 55.0076C4.87503 55.5198 4.03843 55.5187 3.52286 55.0088C3.2743 54.7603 3.13785 54.4326 3.13785 54.0836C3.13785 53.736 3.2743 53.4081 3.52286 53.162L5.6274 51.0654L7.48941 52.9193L5.39183 55.0076ZM12.4222 63.1745C11.9054 63.6866 11.0677 63.6879 10.552 63.1757C10.3034 62.9272 10.1669 62.5994 10.1669 62.2505C10.1669 61.9028 10.3034 61.575 10.552 61.3289L12.6579 59.2312L13.5388 60.1074L14.5211 61.0851L12.4222 63.1745ZM20.0383 55.5863C20.0371 55.5874 20.036 55.5874 20.0348 55.5887L16.1742 59.4387L15.2933 58.5625L14.311 57.5848L18.168 53.7453C18.168 53.7453 18.168 53.7453 18.168 53.7442C18.1692 53.7429 18.1703 53.7429 18.1715 53.7418C18.259 53.6543 18.3139 53.5493 18.3676 53.4456C18.3828 53.4152 18.4119 53.3895 18.4248 53.3581C18.461 53.2682 18.4667 53.1714 18.4808 53.0768C18.4878 53.0231 18.5112 52.9731 18.5112 52.9181C18.5112 52.8399 18.4831 52.7642 18.4669 52.687C18.4529 52.617 18.4529 52.5458 18.426 52.4783C18.3817 52.3686 18.3058 52.2718 18.2265 52.1772C18.2044 52.1515 18.1962 52.1188 18.1717 52.0944C18.1717 52.0944 18.1717 52.0944 18.1705 52.0944C18.1692 52.0933 18.1692 52.0908 18.1681 52.0897L14.6529 48.5897C14.6156 48.5523 14.5677 48.5372 14.5257 48.5057C14.464 48.4579 14.4045 48.4136 14.3356 48.3797C14.2691 48.347 14.2014 48.3271 14.1314 48.3084C14.0568 48.2874 13.9845 48.2711 13.9063 48.2652C13.835 48.2606 13.7686 48.2675 13.6975 48.2757C13.6193 48.285 13.5459 48.2956 13.47 48.32C13.3964 48.3434 13.3312 48.3795 13.2635 48.4181C13.2203 48.4425 13.1714 48.4507 13.1305 48.4811L9.25133 51.3768L7.28077 49.4145L12.5285 44.1948L22.0674 53.5761L20.0383 55.5863ZM34.9544 40.2374C34.9207 40.2327 34.8891 40.2456 34.8553 40.2433C34.7701 40.2386 34.6885 40.2445 34.6034 40.2584C34.5369 40.2701 34.4739 40.2829 34.4108 40.3051C34.3362 40.3308 34.2685 40.3658 34.1996 40.4077C34.1343 40.4474 34.0748 40.4894 34.0176 40.5419C33.9896 40.5663 33.9558 40.5781 33.9301 40.606L23.6527 51.8622L14.185 42.5508L20.3825 36.3861C20.8387 35.9311 20.841 35.1925 20.386 34.7352C20.1562 34.5054 19.854 34.3922 19.5519 34.3934V34.3923L14.6984 34.4214L14.7591 30.9051L21.5492 30.9635C24.3166 33.7939 28.176 35.5591 32.446 35.5591C33.4027 35.5591 34.3361 35.4599 35.2448 35.2907C35.3323 35.3607 35.4186 35.4319 35.5284 35.4762L40.7995 37.5762L41.1331 39.2352L41.5228 41.1719L34.9544 40.2374ZM43.7944 40.627L43.1096 37.2191L46.2736 34.8566L47.102 35.9556L48.3445 37.6052L43.7944 40.627ZM52.0055 34.4343L50.1726 36.1516L48.1356 33.4473L49.9544 32.0531C50.2938 31.7919 50.7221 31.6856 51.1421 31.7405C51.5644 31.7999 51.9378 32.0205 52.1921 32.3623C52.6658 33.0005 52.5853 33.8907 52.0055 34.4343Z" fill="#212121"/>
		<path d="M29.7545 40.5651L25.0668 35.8984C24.613 35.4447 23.8755 35.4447 23.4205 35.8984L18.734 40.5651C18.5147 40.7857 18.391 41.0819 18.391 41.3923C18.391 41.7026 18.5135 42.0002 18.734 42.2195L23.4205 46.8861C23.648 47.1124 23.9468 47.2256 24.2443 47.2256C24.5418 47.2256 24.8404 47.1124 25.0668 46.8861L29.7545 42.2195C29.9738 42.0002 30.0987 41.7026 30.0987 41.3923C30.0987 41.0819 29.9749 40.7844 29.7545 40.5651ZM24.2443 44.4129L21.2109 41.3923L24.2443 38.3717L27.2788 41.3923L24.2443 44.4129Z" fill="#212121"/>
		<path d="M37.5468 11.0923L36.9833 13.358C37.1385 13.3966 40.7844 14.3462 40.7844 18.0586H43.1178C43.1177 13.6461 39.4742 11.5718 37.5468 11.0923Z" fill="#212121"/>
		<path d="M43.1178 20.3921H40.7844V22.7255H43.1178V20.3921Z" fill="#212121"/>
</symbol>

<symbol viewBox="0 0 106 60" id="parthner_1">
	<path fill-rule="evenodd" clip-rule="evenodd" d="M38 7L45.0078 13.6341L32 13.6265V45.8137H66V33.507L73 40.1338V7H38ZM65.6924 32.7283L45.8226 13.918H65.6924V32.7283ZM59.5231 41.1055H37.3801V19.4579H38.9453V39.6397H59.5231V41.1055ZM42.6089 50.0991L41.791 51.7837L40.9731 50.0991H40.2871L41.481 52.3452V53.6538H42.1011V52.3452L43.2925 50.0991H42.6089ZM43.6367 53.6538L43.9248 52.8262H45.3018L45.5923 53.6538H46.2368L44.8916 50.0991H44.3374L42.9946 53.6538H43.6367ZM44.6133 50.8535L45.1284 52.3281H44.0981L44.6133 50.8535ZM47.8701 52.2427C47.7806 52.3794 47.7358 52.5299 47.7358 52.6943C47.7358 52.9938 47.8408 53.2371 48.0508 53.4243C48.2624 53.6099 48.5439 53.7026 48.8955 53.7026C49.2471 53.7026 49.5498 53.6074 49.8037 53.417L50.0039 53.6538H50.6924L50.1699 53.0361C50.375 52.7562 50.4775 52.3973 50.4775 51.9595H49.9624C49.9624 52.1987 49.9128 52.416 49.8135 52.6113L49.1274 51.8008L49.3691 51.625C49.54 51.5013 49.6629 51.3776 49.7378 51.2539C49.8127 51.1286 49.8501 50.9919 49.8501 50.8438C49.8501 50.6191 49.7671 50.4312 49.6011 50.2798C49.4367 50.1268 49.2251 50.0503 48.9663 50.0503C48.6798 50.0503 48.452 50.1317 48.2827 50.2944C48.1134 50.4556 48.0288 50.6753 48.0288 50.9536C48.0288 51.0675 48.0557 51.1855 48.1094 51.3076C48.1647 51.4297 48.2616 51.5778 48.3999 51.752C48.1362 51.9408 47.9596 52.1043 47.8701 52.2427ZM49.4741 53.0288C49.3 53.1623 49.1128 53.229 48.9126 53.229C48.7352 53.229 48.5936 53.1777 48.4878 53.0752C48.382 52.9727 48.3291 52.8392 48.3291 52.6748C48.3291 52.4844 48.4268 52.3151 48.6221 52.167L48.6978 52.1133L49.4741 53.0288ZM48.8369 51.4541C48.6693 51.2474 48.5854 51.0757 48.5854 50.939C48.5854 50.8201 48.6196 50.7217 48.688 50.6436C48.7563 50.5654 48.8483 50.5264 48.9639 50.5264C49.0713 50.5264 49.16 50.5597 49.23 50.6265C49.3 50.6916 49.335 50.7705 49.335 50.8633C49.335 51.0033 49.2845 51.118 49.1836 51.2075L49.1079 51.2686L48.8369 51.4541ZM54.623 53.3853C54.8672 53.172 55.0072 52.8758 55.043 52.4966H54.4277C54.3952 52.7505 54.3179 52.932 54.1958 53.041C54.0737 53.1501 53.8914 53.2046 53.6489 53.2046C53.3836 53.2046 53.1818 53.1037 53.0435 52.9019C52.9067 52.7 52.8384 52.4071 52.8384 52.0229V51.708C52.8416 51.3288 52.9149 51.0415 53.0581 50.8462C53.203 50.6493 53.4097 50.5508 53.6782 50.5508C53.9093 50.5508 54.0843 50.6077 54.2031 50.7217C54.3236 50.834 54.3984 51.0179 54.4277 51.2734H55.043C55.0039 50.8844 54.8647 50.5833 54.6255 50.3701C54.3862 50.1569 54.0705 50.0503 53.6782 50.0503C53.3869 50.0503 53.1297 50.1195 52.9067 50.2578C52.6854 50.3962 52.5153 50.5931 52.3965 50.8486C52.2777 51.1042 52.2183 51.3996 52.2183 51.7349V52.0669C52.2231 52.394 52.2842 52.6813 52.4014 52.9287C52.5186 53.1761 52.6846 53.3674 52.8994 53.5024C53.1159 53.6359 53.3657 53.7026 53.6489 53.7026C54.0542 53.7026 54.3789 53.5968 54.623 53.3853ZM58.2534 52.8872C58.3739 52.6235 58.4341 52.3175 58.4341 51.9692V51.7715C58.4325 51.4248 58.3706 51.1213 58.2485 50.8608C58.1265 50.5988 57.9531 50.3986 57.7285 50.2603C57.5055 50.1203 57.2492 50.0503 56.9595 50.0503C56.6698 50.0503 56.4126 50.1211 56.188 50.2627C55.965 50.4027 55.7917 50.6053 55.668 50.8706C55.5459 51.1359 55.4849 51.4419 55.4849 51.7886V51.9888C55.4865 52.3289 55.5483 52.6292 55.6704 52.8896C55.7941 53.1501 55.9683 53.3511 56.1929 53.4927C56.4191 53.6326 56.6763 53.7026 56.9644 53.7026C57.2557 53.7026 57.5129 53.6326 57.7358 53.4927C57.9604 53.3511 58.133 53.1493 58.2534 52.8872ZM57.5918 50.8779C57.7415 51.0879 57.8164 51.3898 57.8164 51.7837V51.9692C57.8164 52.3696 57.7423 52.674 57.5942 52.8823C57.4478 53.0907 57.2378 53.1948 56.9644 53.1948C56.6942 53.1948 56.4826 53.0882 56.3296 52.875C56.1782 52.6618 56.1025 52.3599 56.1025 51.9692V51.7642C56.1058 51.3817 56.1823 51.0863 56.332 50.8779C56.4834 50.668 56.6925 50.563 56.9595 50.563C57.2329 50.563 57.4437 50.668 57.5918 50.8779Z" />
</symbol>

<symbol viewBox="0 0 106 60" id="parthner_2">
<path fill-rule="evenodd" clip-rule="evenodd" d="M50.1136 5.93452H49.977C49.7671 5.92181 49.5571 5.91672 49.3471 5.91163H49.3471H49.3269H48.8918C48.4946 5.91163 48.0898 5.92181 47.6876 5.94215C47.6573 5.93994 47.6269 5.93994 47.5966 5.94215C43.9522 6.14863 40.3817 7.05951 37.0805 8.62492L36.6479 8.83344V30.9746L37.6598 30.6313C38.5477 30.3261 39.4938 30.0515 40.4728 29.7972C43.1193 29.1178 45.8367 28.7567 48.568 28.7216V31.6306C48.2062 31.6332 47.8546 31.6434 47.503 31.6612H47.4195C45.3175 31.7765 43.2317 32.0967 41.1913 32.6173C38.6072 33.2643 36.1143 34.2357 33.7716 35.5086V7.11189C36.2047 5.69275 38.8253 4.62687 41.5556 3.94596C43.9527 3.32705 46.4169 3.00931 48.8918 3H49.3193C49.8303 3.01271 50.3287 3.0356 50.7967 3.0712C52.0297 3.15778 53.2528 3.35263 54.4521 3.65353V6.51685C53.2874 6.24551 52.1032 6.06695 50.9105 5.98284C50.8863 5.98079 50.8621 5.97872 50.8379 5.97666C50.5911 5.95561 50.344 5.93452 50.1136 5.93452ZM55.1528 8.86138C55.7877 8.9097 56.4455 8.93259 57.1108 8.93259C59.7125 8.92307 62.3031 8.59083 64.8239 7.94339C67.4068 7.29396 69.8986 6.32178 72.2411 5.04956V32.9402C69.8067 34.3585 67.1853 35.4243 64.4546 36.1061C62.0571 36.7227 59.5931 37.0395 57.1184 37.0496C55.2433 37.0647 53.3737 36.8443 51.553 36.3935V8.32229C51.983 8.42146 52.4257 8.51301 52.876 8.58929C53.6147 8.7139 54.3939 8.80544 55.1528 8.86138ZM69.3471 9.07753L68.3352 9.41828C67.4042 9.73106 66.4657 10.0108 65.5221 10.26C62.7749 10.966 59.9514 11.3281 57.1158 11.3382C56.4556 11.3382 55.8485 11.3204 55.2616 11.2822L54.4546 11.2288V31.3178V34.0057L55.1477 34.0667C55.7903 34.1227 56.4531 34.1506 57.1209 34.1506C59.3544 34.1412 61.5781 33.8533 63.7412 33.2937C65.5223 32.8469 67.2552 32.2243 68.9145 31.4348L69.3471 31.2263V9.07753Z" fill="#AFB1B8"/>
<path d="M35.7371 45.212C35.5917 45.0611 35.4163 44.9427 35.2224 44.8642C35.0284 44.7858 34.8203 44.7492 34.6114 44.7568C34.3888 44.7539 34.1678 44.7954 33.9613 44.8789C33.7719 44.9543 33.5998 45.0677 33.4553 45.212C33.3125 45.3568 33.2013 45.5301 33.129 45.7206C33.0497 45.9203 33.0101 46.1337 33.0126 46.3487V50.1427C33.0036 50.4101 33.0546 50.676 33.1619 50.9209C33.2514 51.1153 33.3807 51.2886 33.5413 51.4294C33.693 51.5571 33.871 51.6492 34.0625 51.699C34.2469 51.7508 34.4376 51.7774 34.6291 51.7778C34.8404 51.7799 35.0495 51.7348 35.2413 51.6456C35.4309 51.5626 35.6028 51.4434 35.7473 51.2947C35.8881 51.1473 36.0005 50.9748 36.0786 50.7861C36.1597 50.5948 36.201 50.3888 36.2001 50.1809V49.7562H35.2084V50.0944C35.2114 50.2099 35.1916 50.3248 35.1502 50.4326C35.1179 50.5134 35.0688 50.5862 35.006 50.6462C34.9446 50.6959 34.8742 50.733 34.7986 50.7556C34.7316 50.7779 34.6617 50.7899 34.5912 50.7912C34.5026 50.8015 34.413 50.7881 34.3312 50.7524C34.2495 50.7166 34.1786 50.6599 34.1257 50.5877C34.0322 50.4353 33.9864 50.2581 33.9942 50.0792V46.542C33.988 46.3458 34.0297 46.1511 34.1156 45.9749C34.1671 45.8948 34.2399 45.8309 34.3258 45.7904C34.4117 45.75 34.5071 45.7346 34.6013 45.746C34.6868 45.743 34.7717 45.7608 34.8488 45.798C34.9259 45.8352 34.9929 45.8907 35.044 45.9596C35.155 46.1053 35.213 46.2848 35.2084 46.4682V46.7963H36.19V46.4097C36.1919 46.1827 36.1507 45.9575 36.0685 45.746C35.9953 45.5473 35.8825 45.3656 35.7371 45.212Z" fill="#AFB1B8"/>
<path d="M41.6289 45.169C41.3127 44.902 40.9136 44.7545 40.5007 44.752C40.2987 44.7528 40.0984 44.7889 39.9087 44.8588C39.7161 44.9278 39.5384 45.0331 39.3851 45.169C39.2208 45.3167 39.0897 45.4978 39.0005 45.7005C38.9006 45.9322 38.8515 46.1828 38.8563 46.4354V50.0743C38.8495 50.3302 38.8987 50.5846 39.0005 50.8193C39.0903 51.015 39.2215 51.1886 39.3851 51.3279C39.5367 51.4687 39.7147 51.5776 39.9087 51.6483C40.0984 51.7181 40.2987 51.7543 40.5007 51.7551C40.7027 51.7547 40.9031 51.7186 41.0926 51.6483C41.29 51.5766 41.4719 51.4679 41.6289 51.3279C41.7871 51.186 41.9145 51.0129 42.0033 50.8193C42.1051 50.5846 42.1544 50.3302 42.1475 50.0743V46.4354C42.1524 46.1828 42.1032 45.9322 42.0033 45.7005C41.9151 45.5 41.7878 45.3193 41.6289 45.169ZM41.166 50.0743C41.1743 50.1713 41.1609 50.2689 41.1268 50.36C41.0926 50.4511 41.0386 50.5333 40.9687 50.6007C40.8377 50.7105 40.6725 50.7707 40.5019 50.7707C40.3313 50.7707 40.1662 50.7105 40.0352 50.6007C39.9652 50.5333 39.9112 50.4511 39.8771 50.36C39.8429 50.2689 39.8295 50.1713 39.8379 50.0743V46.4354C39.8295 46.3384 39.8429 46.2407 39.8771 46.1496C39.9112 46.0585 39.9652 45.9763 40.0352 45.909C40.1662 45.7991 40.3313 45.739 40.5019 45.739C40.6725 45.739 40.8377 45.7991 40.9687 45.909C41.0386 45.9763 41.0926 46.0585 41.1268 46.1496C41.1609 46.2407 41.1743 46.3384 41.166 46.4354V50.0743Z" fill="#AFB1B8"/>
<path d="M49.3673 51.6993V44.8105H48.4136L47.1614 48.4571H47.1437L45.8813 44.8105H44.9377V51.6993H45.9218V47.5086H45.9395L46.9033 50.4711H47.3941L48.3655 47.5086H48.3832V51.6993H49.3673Z" fill="#AFB1B8"/>
<path d="M54.9581 45.294C54.8065 45.124 54.6153 44.9947 54.4015 44.9177C54.1712 44.8428 53.9302 44.8067 53.6881 44.8109H52.226V51.6996H53.2075V49.0092H53.7134C54.0197 49.0232 54.3244 48.9584 54.5988 48.8211C54.822 48.6971 55.0081 48.5154 55.1377 48.2947C55.2512 48.1114 55.3277 47.9075 55.3628 47.6945C55.4014 47.4353 55.4192 47.1734 55.4159 46.9113C55.4255 46.5805 55.3932 46.2498 55.3198 45.9272C55.2543 45.6888 55.1299 45.471 54.9581 45.294ZM54.4521 47.3945C54.4479 47.5192 54.4168 47.6415 54.361 47.753C54.3049 47.859 54.2162 47.9437 54.1081 47.9946C53.9627 48.0596 53.8041 48.0892 53.6451 48.0811H53.1974V45.739H53.7033C53.8557 45.7316 54.0075 45.7612 54.146 45.8255C54.2475 45.8837 54.3281 45.9727 54.3762 46.0798C54.4299 46.2008 54.4591 46.3313 54.4622 46.4638C54.4622 46.6087 54.4622 46.7613 54.4622 46.9215C54.4622 47.0817 54.4723 47.247 54.4622 47.3945H54.4521Z" fill="#AFB1B8"/>
<path d="M59.6077 44.8105H58.8032L57.2854 51.6993H58.2669L58.5553 50.2193H59.8935L60.1819 51.6993H61.1635L59.6077 44.8105ZM58.702 49.281L59.1852 46.7838H59.2029L59.6836 49.281H58.702Z" fill="#AFB1B8"/>
<path d="M65.9497 48.9606H65.932L64.4496 44.8105H63.506V51.6993H64.4875V47.5569H64.5078L66.0079 51.6993H66.9312V44.8105H65.9497V48.9606Z" fill="#AFB1B8"/>
<path d="M71.9476 44.8105L71.1583 47.5493H71.1381L70.3488 44.8105H69.3091L70.6574 48.7877V51.6993H71.639V48.7877L72.9873 44.8105H71.9476Z" fill="#AFB1B8"/>
<path d="M33 53.6442H33.4731V54.9716H33.7943V53.6442H34.2649V53.3721H33V53.6442Z" fill="#AFB1B8"/>
<path d="M36.9767 53.3721L36.3569 54.9716H36.6984L36.83 54.6079H37.4675L37.6041 54.9716H37.9532L37.3182 53.3721H36.9767ZM36.9261 54.3384L37.1437 53.7459L37.3612 54.3384H36.9261Z" fill="#AFB1B8"/>
<path d="M40.9079 54.3821H41.2773V54.5881C41.1694 54.6746 41.0358 54.722 40.8978 54.7229C40.8333 54.7265 40.7689 54.7145 40.7099 54.688C40.6509 54.6614 40.5991 54.6211 40.5588 54.5703C40.474 54.4485 40.4322 54.3017 40.4399 54.1533C40.4399 53.7973 40.5942 53.6193 40.9003 53.6193C40.9809 53.6112 41.0617 53.6325 41.128 53.6791C41.1944 53.7257 41.2419 53.7947 41.2621 53.8735L41.5783 53.8125C41.51 53.4997 41.2849 53.3421 40.9003 53.3421C40.6947 53.3366 40.4947 53.4103 40.3413 53.5481C40.2607 53.6276 40.1983 53.7239 40.1586 53.8302C40.1188 53.9365 40.1026 54.0502 40.1111 54.1634C40.1017 54.3823 40.1749 54.5966 40.316 54.7636C40.3943 54.8444 40.4892 54.9071 40.594 54.9475C40.6988 54.9879 40.8111 55.0049 40.9231 54.9975C41.1734 55.0045 41.4165 54.9133 41.6011 54.7432V54.1126H40.9079V54.3821Z" fill="#AFB1B8"/>
<path d="M44.9226 53.3721H44.5988V54.9716H45.7194V54.6995H44.9226V53.3721Z" fill="#AFB1B8"/>
<path d="M48.3175 53.3721H47.9937V54.9716H48.3175V53.3721Z" fill="#AFB1B8"/>
<path d="M51.6365 54.4401L50.9813 53.3721H50.6676V54.9716H50.9686V53.9264L51.6112 54.9716H51.9325V53.3721H51.6365V54.4401Z" fill="#AFB1B8"/>
<path d="M54.6368 54.2672H55.4337V53.9951H54.6368V53.6442H55.4944V53.3721H54.313V54.9716H55.5273V54.6995H54.6368V54.2672Z" fill="#AFB1B8"/>
<path d="M61.9122 54.0027H61.2823V53.3721H60.9611V54.9716H61.2823V54.2723H61.9122V54.9716H62.2335V53.3721H61.9122V54.0027Z" fill="#AFB1B8"/>
<path d="M64.9302 54.2672H65.7296V53.9951H64.9302V53.6442H65.7903V53.3721H64.6089V54.9716H65.8206V54.6995H64.9302V54.2672Z" fill="#AFB1B8"/>
<path d="M69.0233 54.2674C69.3015 54.2241 69.4432 54.0766 69.4432 53.8224C69.4513 53.7543 69.441 53.6854 69.4134 53.6227C69.3858 53.5601 69.3419 53.5061 69.2863 53.4663C69.1415 53.3936 68.9799 53.3611 68.8183 53.3723H68.1404V54.9717H68.4617V54.303H68.5249C68.5934 54.2987 68.6619 54.3109 68.7247 54.3386C68.7717 54.3675 68.8108 54.4077 68.8386 54.4555L69.1877 54.9641H69.5722L69.3774 54.6513C69.2913 54.4969 69.1699 54.3653 69.0233 54.2674ZM68.6994 54.0461H68.4617V53.6444H68.7146C68.8248 53.6354 68.9357 53.6484 69.041 53.6825C69.0644 53.7031 69.0828 53.7288 69.095 53.7576C69.1072 53.7865 69.1127 53.8176 69.1113 53.8489C69.1098 53.8802 69.1014 53.9107 69.0866 53.9382C69.0718 53.9658 69.051 53.9896 69.0258 54.008C68.9202 54.0404 68.8096 54.0533 68.6994 54.0461Z" fill="#AFB1B8"/>
<path d="M72.1096 54.2672H72.9064V53.9951H72.1096V53.6442H72.9697V53.3721H71.7858V54.9716H73V54.6995H72.1096V54.2672Z" fill="#AFB1B8"/>
</symbol>

<symbol  viewBox="0 0 106 60" id="parthner_3">
<path d="M36.4063 49.1018C36.4222 49.1022 36.4379 49.1053 36.4524 49.111C36.4669 49.1167 36.4799 49.1248 36.4908 49.135L36.7089 49.3435C36.5396 49.5122 36.3304 49.6472 36.0955 49.7391C35.8204 49.8395 35.5239 49.8879 35.2257 49.8813C34.9455 49.8863 34.6671 49.8411 34.4078 49.7486C34.1739 49.6636 33.9638 49.536 33.7916 49.3743C33.6159 49.2065 33.4805 49.01 33.3935 48.7962C33.2982 48.5578 33.2512 48.3069 33.2545 48.0546C33.2506 47.8007 33.3015 47.5483 33.4044 47.3107C33.4997 47.0955 33.6433 46.8989 33.827 46.7326C34.0132 46.5694 34.2359 46.4412 34.4814 46.3558C34.7499 46.2654 35.0359 46.2203 35.3239 46.2232C35.5914 46.2175 35.8575 46.2586 36.1064 46.344C36.3223 46.4254 36.5206 46.5384 36.6926 46.6781L36.5099 46.9008C36.4973 46.9165 36.4816 46.9301 36.4635 46.941C36.442 46.9539 36.4159 46.9598 36.3899 46.9576C36.3616 46.9559 36.3343 46.9478 36.3109 46.9339L36.2127 46.8747L36.0764 46.7989C36.0175 46.7707 35.9565 46.7462 35.8937 46.7255C35.8128 46.7003 35.7299 46.6805 35.6456 46.6662C35.5386 46.6491 35.4299 46.6412 35.3211 46.6425C35.1138 46.6403 34.908 46.6741 34.7159 46.742C34.5367 46.805 34.375 46.9003 34.2415 47.0216C34.1055 47.1507 34.0007 47.3021 33.9334 47.467C33.8566 47.6556 33.8187 47.8545 33.8216 48.0546C33.8183 48.2578 33.8561 48.4598 33.9334 48.6516C33.9999 48.8151 34.1027 48.9656 34.236 49.0947C34.3609 49.215 34.5157 49.309 34.6886 49.3695C34.8666 49.4336 35.0576 49.4659 35.2503 49.4643C35.3615 49.4658 35.4728 49.4594 35.5829 49.4453C35.7627 49.4263 35.9351 49.372 36.0873 49.2866C36.1636 49.2429 36.2356 49.1937 36.3027 49.1397C36.3307 49.1165 36.3676 49.103 36.4063 49.1018Z" fill="#AFB1B8"/>
<path d="M42.7044 48.0537C42.7078 48.3051 42.6579 48.5548 42.5572 48.7905C42.4684 49.0042 42.3284 49.1992 42.1465 49.3625C41.9646 49.5259 41.745 49.6539 41.5021 49.7381C40.9683 49.915 40.3782 49.915 39.8444 49.7381C39.603 49.6526 39.3848 49.5243 39.2037 49.3614C39.0219 49.1951 38.8809 48.9984 38.7893 48.7834C38.5929 48.3062 38.5929 47.7846 38.7893 47.3074C38.8823 47.0922 39.0231 46.895 39.2037 46.727C39.3864 46.5693 39.6045 46.4459 39.8444 46.3646C40.3775 46.1845 40.969 46.1845 41.5021 46.3646C41.7443 46.45 41.9634 46.5783 42.1455 46.7412C42.325 46.9059 42.465 47.1 42.5572 47.3122C42.6582 47.5494 42.7081 47.8008 42.7044 48.0537ZM42.1319 48.0537C42.1362 47.8526 42.1011 47.6523 42.0283 47.4614C41.9672 47.2979 41.8679 47.1471 41.7366 47.0184C41.6087 46.8967 41.4513 46.8012 41.2758 46.7389C40.8879 46.6093 40.4586 46.6093 40.0707 46.7389C39.8952 46.8012 39.7378 46.8967 39.6099 47.0184C39.4768 47.1463 39.3764 47.2973 39.3155 47.4614C39.1768 47.8471 39.1768 48.2603 39.3155 48.646C39.377 48.8098 39.4773 48.9607 39.6099 49.089C39.7379 49.2099 39.8953 49.3046 40.0707 49.3661C40.4593 49.4924 40.8872 49.4924 41.2758 49.3661C41.4512 49.3046 41.6086 49.2099 41.7366 49.089C41.8673 48.96 41.9665 48.8093 42.0283 48.646C42.1015 48.4551 42.1365 48.2548 42.1319 48.0537Z" fill="#AFB1B8"/>
<path d="M47.0013 48.6746L47.0586 48.8072C47.0804 48.7599 47.0995 48.7172 47.1213 48.6746C47.1421 48.63 47.1657 48.5865 47.1922 48.5443L48.5854 46.3437C48.6127 46.3058 48.6372 46.2821 48.6645 46.275C48.7015 46.2652 48.7403 46.2612 48.779 46.2632H49.1907V49.8424H48.7026V47.2107C48.7026 47.1775 48.7026 47.1396 48.7026 47.0994C48.7 47.0583 48.7 47.0172 48.7026 46.9762L47.3012 49.2076C47.2834 49.241 47.255 49.2692 47.2192 49.289C47.1834 49.3087 47.1418 49.3191 47.0995 49.3189H47.0204C46.9779 49.3194 46.9362 49.3091 46.9004 49.2894C46.8646 49.2696 46.8362 49.2412 46.8186 49.2076L45.3763 46.962C45.3763 47.0046 45.3763 47.0472 45.3763 47.0899C45.3763 47.1325 45.3763 47.1704 45.3763 47.2036V49.8353H44.9047V46.2632H45.3164C45.355 46.2612 45.3938 46.2652 45.4309 46.275C45.4647 46.2896 45.4916 46.3139 45.5072 46.3437L46.9304 48.5467C46.9584 48.5874 46.9821 48.6302 47.0013 48.6746Z" fill="#AFB1B8"/>
<path d="M52.2444 48.4967V49.8374H51.6991V46.2631H52.9151C53.1446 46.2592 53.3735 46.2856 53.594 46.3412C53.7705 46.3847 53.9341 46.4606 54.0739 46.5639C54.195 46.6607 54.2883 46.7807 54.3465 46.9145C54.4109 47.0603 54.4423 47.2155 54.4392 47.3716C54.4416 47.5284 54.4073 47.6839 54.3383 47.8288C54.2728 47.9659 54.1721 48.0882 54.0439 48.1864C53.904 48.294 53.7395 48.3747 53.5613 48.4233C53.349 48.4822 53.127 48.5103 52.9042 48.5062L52.2444 48.4967ZM52.2444 48.113H52.9042C53.0475 48.1146 53.1902 48.0962 53.3268 48.0585C53.4395 48.0256 53.5433 47.9732 53.6322 47.9046C53.7141 47.839 53.7775 47.758 53.8176 47.6677C53.8622 47.5722 53.8844 47.4699 53.883 47.3669C53.8893 47.2675 53.8707 47.1681 53.8283 47.0757C53.7859 46.9832 53.7208 46.8999 53.6376 46.8315C53.4293 46.6902 53.1677 46.6218 52.9042 46.6397H52.2444V48.113Z" fill="#AFB1B8"/>
<path d="M59.5731 49.8423H59.1423C59.0991 49.8437 59.0566 49.832 59.0223 49.8091C58.9914 49.7868 58.9671 49.7584 58.9514 49.7262L58.5806 48.8615H56.7185L56.334 49.7262C56.3199 49.7578 56.2964 49.7856 56.2659 49.8067C56.2312 49.831 56.1877 49.8436 56.1432 49.8423H55.7124L57.3483 46.2627H57.9154L59.5731 49.8423ZM56.8739 48.5133H58.4116L57.7627 47.0563C57.7131 46.9467 57.6721 46.8343 57.64 46.7199L57.5773 46.9071C57.5582 46.9639 57.5364 47.016 57.5173 47.0587L56.8739 48.5133Z" fill="#AFB1B8"/>
<path d="M61.9288 46.2794C61.9614 46.2949 61.9894 46.3168 62.0106 46.3433L64.3962 49.0416C64.3962 48.9989 64.3962 48.9563 64.3962 48.916C64.3962 48.8758 64.3962 48.8355 64.3962 48.7976V46.2628H64.8843V49.8423H64.6116C64.5729 49.8433 64.5345 49.836 64.4998 49.821C64.4662 49.8039 64.4365 49.7814 64.4126 49.7546L62.0297 47.0587C62.0323 47.0998 62.0323 47.1409 62.0297 47.1819C62.0297 47.2222 62.0297 47.2577 62.0297 47.2909V49.8423H61.5416V46.2628H61.8306C61.8644 46.262 61.8979 46.2676 61.9288 46.2794Z" fill="#AFB1B8"/>
<path d="M68.9031 48.4193V49.8407H68.3578V48.4193L66.8501 46.2635H67.3381C67.3802 46.2614 67.4218 46.2723 67.4554 46.2943C67.4851 46.3173 67.51 46.3446 67.529 46.3749L68.4724 47.7655C68.5105 47.8247 68.5432 47.8792 68.5705 47.9313C68.5978 47.9834 68.6196 48.0332 68.6387 48.0829L68.7096 47.9289C68.736 47.8726 68.767 47.818 68.8023 47.7655L69.732 46.3654C69.7516 46.3375 69.7754 46.312 69.8029 46.2896C69.8352 46.265 69.8772 46.2523 69.9201 46.2541H70.4136L68.9031 48.4193Z" fill="#AFB1B8"/>
<path d="M46.7314 40.2563C46.9686 40.2823 47.2086 40.3036 47.4512 40.3226C51.1301 38.8927 54.2422 36.5525 56.3987 33.5943C58.5552 30.6362 59.6603 27.1914 59.5759 23.6905L55.5216 20.168C56.346 23.8953 55.9604 27.7483 54.408 31.2961C52.8555 34.8438 50.1976 37.9462 46.7314 40.2563Z" fill="#AFB1B8"/>
<path d="M45.2837 40.0929L45.3928 40.1118C49.0966 37.81 51.9205 34.5957 53.4993 30.8845C55.078 27.1733 55.3389 23.1359 54.2483 19.2945L48.4737 14.2773C50.8094 18.4014 51.7495 23.0168 51.1848 27.5868C50.6201 32.1568 48.5737 36.4936 45.2837 40.0929Z" fill="#AFB1B8"/>
<path d="M64.868 27.8271C63.8869 31.6737 61.5042 35.1429 58.0736 37.7195C57.0717 38.4761 55.991 39.1502 54.8455 39.733C57.6389 39.0196 60.2065 37.7584 62.3503 36.0466C64.494 34.3347 66.1567 32.218 67.21 29.8596L64.868 27.8271Z" fill="#AFB1B8"/>
<path d="M63.949 27.2604L60.6146 24.3633C60.5508 27.6664 59.47 30.8944 57.4845 33.7117C55.499 36.5291 52.6813 38.833 49.3242 40.3841H49.3406C50.0887 40.3838 50.8362 40.3451 51.579 40.268C54.7164 39.1554 57.488 37.3853 59.6464 35.1156C61.8049 32.8459 63.283 30.1472 63.949 27.2604Z" fill="#AFB1B8"/>
<path d="M45.7663 12.1612L41.7883 8.7002C38.2322 9.89415 35.1738 11.9931 33.0134 14.7223C30.8529 17.4515 29.6912 20.6838 29.6801 23.9961V23.9961C29.6934 27.6562 31.1113 31.2079 33.7093 34.089C36.3073 36.9702 39.9371 39.0162 44.0241 39.9033C47.6725 36.0412 49.8086 31.269 50.1219 26.28C50.4352 21.291 48.9094 16.3452 45.7663 12.1612Z" fill="#AFB1B8"/>
<path d="M73.1401 26.7277C73.1257 22.3852 71.1339 18.2242 67.5997 15.1535C64.0656 12.0829 59.2764 10.3524 54.2784 10.3399C51.9688 10.3378 49.6789 10.7081 47.5249 11.4319L71.8805 32.593C72.7144 30.7225 73.1415 28.7337 73.1401 26.7277Z" fill="#AFB1B8"/>
</symbol>

<symbol  viewBox="0 0 106 60" id="parthner_4">
<path d="M24.1462 21.1035H24.1433C21.7453 21.1035 19.8013 22.8311 19.8013 24.9622V24.9647C19.8013 27.0958 21.7453 28.8234 24.1433 28.8234H24.1462C26.5442 28.8234 28.4882 27.0958 28.4882 24.9647V24.9622C28.4882 22.8311 26.5442 21.1035 24.1462 21.1035Z" fill="#2196F3"/>
<path d="M56.195 19.8695C56.1882 16.9095 54.8623 14.0725 52.5074 11.9792C50.1525 9.88592 46.9604 8.70692 43.6297 8.7002V8.7002C40.298 8.70557 37.1045 9.88398 34.7484 11.9774C32.3922 14.0708 31.0655 16.9087 31.0587 19.8695V36.1924C31.0587 36.1924 56.1922 33.7047 56.195 19.8721V19.8695Z" fill="#2196F3"/>
<path d="M11 41.5495C11.006 43.6091 11.9291 45.5828 13.5676 47.0394C15.2061 48.496 17.4267 49.317 19.7442 49.3231C22.0612 49.317 24.2814 48.4963 25.9197 47.0403C27.5581 45.5843 28.4816 43.6112 28.4884 41.552V30.1943C28.4884 30.1943 11 31.9266 11 41.5495ZM19.7442 43.5844C19.2913 43.5844 18.8486 43.4651 18.472 43.2415C18.0955 43.0179 17.802 42.7001 17.6287 42.3282C17.4554 41.9564 17.41 41.5472 17.4984 41.1525C17.5867 40.7577 17.8048 40.3951 18.125 40.1105C18.4453 39.8259 18.8533 39.6321 19.2975 39.5536C19.7416 39.4751 20.202 39.5154 20.6205 39.6694C21.0389 39.8234 21.3965 40.0843 21.6481 40.4189C21.8997 40.7535 22.034 41.147 22.034 41.5495C22.0351 41.8173 21.9767 42.0828 21.8622 42.3306C21.7476 42.5783 21.5791 42.8036 21.3664 42.9933C21.1536 43.1831 20.9008 43.3337 20.6224 43.4364C20.3441 43.5392 20.0456 43.5921 19.7442 43.5921V43.5844Z" fill="#2196F3"/>
<path d="M37.4177 42.4639H35.7302V44.207H34.8513V39.9414H37.6287V40.6533H35.7302V41.7549H37.4177V42.4639ZM41.6423 42.1709C41.6423 42.5908 41.5681 42.959 41.4197 43.2754C41.2712 43.5918 41.0583 43.8359 40.781 44.0078C40.5056 44.1797 40.1892 44.2656 39.8318 44.2656C39.4783 44.2656 39.1628 44.1807 38.8855 44.0107C38.6082 43.8408 38.3933 43.5986 38.241 43.2842C38.0886 42.9678 38.0115 42.6045 38.0095 42.1943V41.9834C38.0095 41.5635 38.0847 41.1943 38.2351 40.876C38.3875 40.5557 38.6013 40.3105 38.8767 40.1406C39.1541 39.9688 39.4705 39.8828 39.8259 39.8828C40.1814 39.8828 40.4968 39.9688 40.7722 40.1406C41.0496 40.3105 41.2634 40.5557 41.4138 40.876C41.5662 41.1943 41.6423 41.5625 41.6423 41.9805V42.1709ZM40.7517 41.9775C40.7517 41.5303 40.6716 41.1904 40.5115 40.958C40.3513 40.7256 40.1228 40.6094 39.8259 40.6094C39.531 40.6094 39.3035 40.7246 39.1433 40.9551C38.9832 41.1836 38.9021 41.5195 38.9001 41.9629V42.1709C38.9001 42.6064 38.9802 42.9443 39.1404 43.1846C39.3005 43.4248 39.531 43.5449 39.8318 43.5449C40.1267 43.5449 40.3533 43.4297 40.5115 43.1992C40.6697 42.9668 40.7498 42.6289 40.7517 42.1855V41.9775ZM44.4929 43.0879C44.4929 42.9219 44.4343 42.7949 44.3171 42.707C44.2 42.6172 43.989 42.5234 43.6843 42.4258C43.3796 42.3262 43.1384 42.2285 42.9607 42.1328C42.4763 41.8711 42.2341 41.5186 42.2341 41.0752C42.2341 40.8447 42.2986 40.6396 42.4275 40.46C42.5583 40.2783 42.7449 40.1367 42.9871 40.0352C43.2312 39.9336 43.5046 39.8828 43.8074 39.8828C44.1121 39.8828 44.3835 39.9385 44.6218 40.0498C44.8601 40.1592 45.0447 40.3145 45.1755 40.5156C45.3083 40.7168 45.3748 40.9453 45.3748 41.2012H44.4958C44.4958 41.0059 44.4343 40.8545 44.3113 40.7471C44.1882 40.6377 44.0154 40.583 43.7927 40.583C43.5779 40.583 43.4109 40.6289 43.2917 40.7207C43.1726 40.8105 43.113 40.9297 43.113 41.0781C43.113 41.2168 43.1824 41.333 43.321 41.4268C43.4617 41.5205 43.6677 41.6084 43.9392 41.6904C44.4392 41.8408 44.8035 42.0273 45.032 42.25C45.2605 42.4727 45.3748 42.75 45.3748 43.082C45.3748 43.4512 45.2351 43.7412 44.9558 43.9521C44.6765 44.1611 44.3005 44.2656 43.8279 44.2656C43.4998 44.2656 43.2009 44.2061 42.9314 44.0869C42.6619 43.9658 42.4558 43.8008 42.3132 43.5918C42.1726 43.3828 42.1023 43.1406 42.1023 42.8652H42.9841C42.9841 43.3359 43.2654 43.5713 43.8279 43.5713C44.0369 43.5713 44.2 43.5293 44.3171 43.4453C44.4343 43.3594 44.4929 43.2402 44.4929 43.0879ZM49.1833 40.6533H47.8767V44.207H46.9978V40.6533H45.7087V39.9414H49.1833V40.6533ZM52.2537 42.3584H50.5662V43.501H52.5466V44.207H49.6873V39.9414H52.5408V40.6533H50.5662V41.6699H52.2537V42.3584ZM54.6414 42.6455H53.9412V44.207H53.0623V39.9414H54.6472C55.1511 39.9414 55.5398 40.0537 55.8132 40.2783C56.0867 40.5029 56.2234 40.8203 56.2234 41.2305C56.2234 41.5215 56.1599 41.7646 56.033 41.96C55.908 42.1533 55.7175 42.3076 55.4617 42.4229L56.3845 44.166V44.207H55.4412L54.6414 42.6455ZM53.9412 41.9336H54.6501C54.8708 41.9336 55.0417 41.8779 55.1628 41.7666C55.2839 41.6533 55.3445 41.498 55.3445 41.3008C55.3445 41.0996 55.2869 40.9414 55.1716 40.8262C55.0583 40.7109 54.8835 40.6533 54.6472 40.6533H53.9412V41.9336ZM59.2673 42.7041V44.207H58.3884V39.9414H60.0525C60.3728 39.9414 60.6541 40 60.8962 40.1172C61.1404 40.2344 61.3279 40.4014 61.4587 40.6182C61.5896 40.833 61.655 41.0781 61.655 41.3535C61.655 41.7715 61.5115 42.1016 61.2244 42.3438C60.9392 42.584 60.5437 42.7041 60.0378 42.7041H59.2673ZM59.2673 41.9922H60.0525C60.2849 41.9922 60.4617 41.9375 60.5828 41.8281C60.7058 41.7188 60.7673 41.5625 60.7673 41.3594C60.7673 41.1504 60.7058 40.9814 60.5828 40.8525C60.4597 40.7236 60.2898 40.6572 60.073 40.6533H59.2673V41.9922ZM64.8279 42.3584H63.1404V43.501H65.1208V44.207H62.2615V39.9414H65.115V40.6533H63.1404V41.6699H64.8279V42.3584ZM68.906 40.6533H67.5994V44.207H66.7205V40.6533H65.4314V39.9414H68.906V40.6533ZM71.9763 42.3584H70.2888V43.501H72.2693V44.207H69.4099V39.9414H72.2634V40.6533H70.2888V41.6699H71.9763V42.3584ZM74.364 42.6455H73.6638V44.207H72.7849V39.9414H74.3699C74.8738 39.9414 75.2625 40.0537 75.5359 40.2783C75.8093 40.5029 75.946 40.8203 75.946 41.2305C75.946 41.5215 75.8826 41.7646 75.7556 41.96C75.6306 42.1533 75.4402 42.3076 75.1843 42.4229L76.1072 44.166V44.207H75.1638L74.364 42.6455ZM73.6638 41.9336H74.3728C74.5935 41.9336 74.7644 41.8779 74.8855 41.7666C75.0066 41.6533 75.0671 41.498 75.0671 41.3008C75.0671 41.0996 75.0095 40.9414 74.8943 40.8262C74.781 40.7109 74.6062 40.6533 74.3699 40.6533H73.6638V41.9336ZM78.8289 43.0879C78.8289 42.9219 78.7703 42.7949 78.6531 42.707C78.5359 42.6172 78.325 42.5234 78.0203 42.4258C77.7156 42.3262 77.4744 42.2285 77.2966 42.1328C76.8123 41.8711 76.5701 41.5186 76.5701 41.0752C76.5701 40.8447 76.6345 40.6396 76.7634 40.46C76.8943 40.2783 77.0808 40.1367 77.323 40.0352C77.5671 39.9336 77.8406 39.8828 78.1433 39.8828C78.448 39.8828 78.7195 39.9385 78.9578 40.0498C79.196 40.1592 79.3806 40.3145 79.5115 40.5156C79.6443 40.7168 79.7107 40.9453 79.7107 41.2012H78.8318C78.8318 41.0059 78.7703 40.8545 78.6472 40.7471C78.5242 40.6377 78.3513 40.583 78.1287 40.583C77.9138 40.583 77.7468 40.6289 77.6277 40.7207C77.5085 40.8105 77.449 40.9297 77.449 41.0781C77.449 41.2168 77.5183 41.333 77.657 41.4268C77.7976 41.5205 78.0037 41.6084 78.2751 41.6904C78.7751 41.8408 79.1394 42.0273 79.3679 42.25C79.5964 42.4727 79.7107 42.75 79.7107 43.082C79.7107 43.4512 79.571 43.7412 79.2917 43.9521C79.0125 44.1611 78.6365 44.2656 78.1638 44.2656C77.8357 44.2656 77.5369 44.2061 77.2673 44.0869C76.9978 43.9658 76.7917 43.8008 76.6492 43.5918C76.5085 43.3828 76.4382 43.1406 76.4382 42.8652H77.3201C77.3201 43.3359 77.6013 43.5713 78.1638 43.5713C78.3728 43.5713 78.5359 43.5293 78.6531 43.4453C78.7703 43.3594 78.8289 43.2402 78.8289 43.0879Z" fill="#2196F3"/>
</symbol>

<symbol  viewBox="0 0 106 60" id="parthner_5">
<path d="M26.7569 44.7349C27.0006 45.011 27.1304 45.3569 27.1236 45.7118C27.136 45.9434 27.0914 46.1745 26.993 46.3881C26.8947 46.6018 26.7451 46.7924 26.5554 46.9459C26.082 47.2732 25.4956 47.4333 24.9037 47.3966H22V41.2051H24.8442C25.4057 41.1709 25.9626 41.3163 26.42 41.6165C26.6036 41.7572 26.7491 41.9351 26.8448 42.1362C26.9406 42.3372 26.984 42.5559 26.9716 42.7749C26.9883 43.1164 26.8712 43.4522 26.6413 43.7216C26.4206 43.9676 26.1156 44.1382 25.7758 44.2056C26.161 44.2699 26.5087 44.4575 26.7569 44.7349ZM23.3511 43.8003H24.5667C24.843 43.819 25.1174 43.7459 25.3397 43.5946C25.431 43.5188 25.502 43.4249 25.5473 43.32C25.5925 43.2151 25.6108 43.1021 25.6007 42.9896C25.6093 42.8776 25.5906 42.7653 25.5461 42.6607C25.5015 42.5561 25.4322 42.4618 25.343 42.3847C25.1141 42.2291 24.8312 42.1549 24.5469 42.176H23.3511V43.8003ZM25.4587 46.1746C25.5562 46.0971 25.6329 46 25.6828 45.8908C25.7326 45.7817 25.7543 45.6635 25.7461 45.5455C25.7535 45.4261 25.7309 45.3067 25.6799 45.1965C25.6289 45.0864 25.551 44.9885 25.4521 44.9103C25.2142 44.7488 24.9217 44.6696 24.6262 44.6865H23.3511V46.3894H24.6427C24.9334 46.4047 25.2212 46.329 25.4587 46.1746Z" fill="#AFB1B8"/>
<path d="M32.5709 47.3973L30.9886 44.9776H30.394V47.3973H29.033V41.2058H31.6096C32.2591 41.1643 32.9012 41.3527 33.4034 41.7321C33.7635 42.0682 33.9808 42.511 34.0159 42.9807C34.051 43.4504 33.9018 43.9162 33.595 44.294C33.2771 44.6275 32.8428 44.8498 32.3661 44.9231L34.0508 47.3973H32.5709ZM30.394 44.1337H31.5072C32.2802 44.1337 32.6667 43.8212 32.6667 43.1961C32.6746 43.0684 32.6534 42.9407 32.6045 42.8209C32.5556 42.7011 32.48 42.592 32.3826 42.5004C32.1383 42.3144 31.8237 42.2242 31.5072 42.2494H30.3807L30.394 44.1337Z" fill="#AFB1B8"/>
<path d="M40.0101 46.1502H37.298L36.819 47.3963H35.392L37.8827 41.2744H39.4254L41.9063 47.3963H40.4792L40.0101 46.1502ZM39.6467 45.2125L38.6557 42.5992L37.6647 45.2125H39.6467Z" fill="#AFB1B8"/>
<path d="M49.3225 47.3965H47.9714L44.9421 43.1862V47.3965H43.5944V41.2051H44.9421L47.9714 45.4396V41.2051H49.3225V47.3965Z" fill="#AFB1B8"/>
<path d="M57.0326 45.9148C56.7532 46.3822 56.3276 46.7625 55.8103 47.0067C55.2222 47.2786 54.5695 47.4127 53.9109 47.3968H51.506V41.2054H53.9109C54.5684 41.1896 55.2202 41.3204 55.8103 41.5865C56.3275 41.8251 56.7536 42.2016 57.0326 42.6663C57.3107 43.1698 57.4556 43.7262 57.4556 44.2905C57.4556 44.8548 57.3107 45.4112 57.0326 45.9148ZM55.4866 45.7665C55.8722 45.3552 56.0842 44.8311 56.0842 44.289C56.0842 43.7469 55.8722 43.2228 55.4866 42.8115C55.0205 42.4389 54.4127 42.2498 53.7952 42.2852H52.8571V46.2928H53.7952C54.4127 46.3282 55.0205 46.1391 55.4866 45.7665Z" fill="#AFB1B8"/>
<path d="M40.8558 6.7666C40.8558 6.7666 58.2945 12.7947 57.9245 21.5178V36.2721C57.9245 36.2721 40.4991 30.2409 40.8624 21.5178L40.8558 6.7666Z" fill="#AFB1B8"/>
<path d="M73.4603 32.8181C76.7538 30.7428 80.5633 29.4574 84.5399 29.0796V24.4609C79.9579 26.0779 76.0709 29.0098 73.4603 32.8181Z" fill="#AFB1B8"/>
<path d="M71.4816 34.2094C74.1773 29.2395 78.8505 25.4045 84.54 23.493V10.1846C84.54 10.1846 59.705 18.7716 60.2303 31.1938V52.2C60.2303 52.2 61.3369 51.8159 63.0778 51.096C63.0778 50.4246 63.0778 49.747 63.1571 49.0665C63.6711 43.2995 66.6654 37.9554 71.4816 34.2094Z" fill="#AFB1B8"/>
<path d="M69.1197 42.013C69.2502 40.5561 69.5413 39.1151 69.9885 37.7119C66.9896 40.947 65.1734 44.9613 64.7956 49.1905C64.7592 49.5897 64.7394 49.989 64.7295 50.4003C66.14 49.7803 67.7818 49.006 69.5062 48.0956C69.0662 46.0947 68.936 44.0471 69.1197 42.013Z" fill="#AFB1B8"/>
<path d="M70.1074 42.0886C69.9421 43.9289 70.0454 45.7812 70.4146 47.5965C77.1998 43.8792 84.8241 38.1354 84.5301 31.1938V30.5889C79.6823 31.0855 75.1468 33.0259 71.6204 36.1119C70.7947 38.0243 70.2848 40.0386 70.1074 42.0886Z" fill="#AFB1B8"/>
</symbol>

<symbol  viewBox="0 0 106 60"  id="parthner_6">
<path d="M53.425 27.4081C52.9819 26.8183 52.7699 26.1212 52.8203 25.4195V22.5363C52.8203 21.6525 53.0207 20.9808 53.4216 20.5213C53.8224 20.0618 54.511 19.833 55.4871 19.835C56.4044 19.835 57.0555 20.0305 57.4405 20.4216C57.8605 20.9206 58.0648 21.5307 58.018 22.1462V22.8238H56.3772V22.1374C56.383 21.9128 56.3671 21.6881 56.3296 21.4657C56.306 21.3137 56.2234 21.1731 56.0952 21.0669C55.9267 20.9523 55.7145 20.8968 55.5007 20.9114C55.2759 20.8969 55.0529 20.9555 54.8756 21.0757C54.7327 21.1933 54.6374 21.3476 54.6038 21.5156C54.5567 21.7509 54.5351 21.9896 54.5393 22.2283V25.7275C54.5134 26.065 54.5858 26.4028 54.7499 26.71C54.8315 26.814 54.9448 26.8964 55.0774 26.9482C55.2099 26.9999 55.3564 27.019 55.5007 27.0034C55.7109 27.0183 55.9195 26.9614 56.0816 26.845C56.2153 26.7304 56.3013 26.5809 56.3262 26.4197C56.3645 26.1875 56.3816 25.9531 56.3772 25.7187V25.0089H58.018V25.6571C58.0641 26.2986 57.8648 26.9355 57.4507 27.4697C57.0736 27.8979 56.4315 28.112 55.4871 28.112C54.5427 28.112 53.8292 27.8833 53.425 27.4081Z" fill="#AFB1B8"/>
<path d="M60.2569 27.4374C59.8425 26.9887 59.6353 26.3346 59.6353 25.4694V22.4366C59.6353 21.5801 59.8425 20.9319 60.2569 20.492C60.6714 20.052 61.3644 19.833 62.336 19.835C63.3008 19.835 63.9904 20.054 64.4049 20.492C64.8193 20.9319 65.03 21.5801 65.03 22.4366V25.4694C65.03 26.3258 64.8193 26.9828 64.3981 27.4345C63.9768 27.8862 63.2906 28.112 62.336 28.112C61.3814 28.112 60.6748 27.8833 60.2569 27.4374ZM63.1004 26.71C63.2488 26.4289 63.3164 26.121 63.2974 25.8125V22.0993C63.3165 21.7968 63.25 21.4948 63.1038 21.2194C63.0205 21.1132 62.9044 21.0295 62.7686 20.9776C62.6329 20.9257 62.483 20.9079 62.336 20.9261C62.1886 20.9083 62.0384 20.9264 61.9022 20.9782C61.766 21.03 61.6492 21.1135 61.5648 21.2194C61.4155 21.494 61.3477 21.7964 61.3678 22.0993V25.8301C61.3472 26.1387 61.4148 26.447 61.5648 26.7276C61.6605 26.8223 61.7785 26.8981 61.9109 26.95C62.0434 27.002 62.1872 27.0289 62.3326 27.0289C62.4781 27.0289 62.6219 27.002 62.7543 26.95C62.8867 26.8981 63.0047 26.8223 63.1004 26.7276V26.71Z" fill="#AFB1B8"/>
<path d="M67.0035 19.9238H68.7701L70.0984 25.5195L71.4573 19.9238H73.1763L73.3496 28.0005H72.079L71.9431 22.3873L70.6318 28.0005H69.6126L68.2537 22.3668L68.128 28.0005H66.8439L67.0035 19.9238Z" fill="#AFB1B8"/>
<path d="M75.3303 19.9238H78.082C79.6673 19.9238 80.46 20.6883 80.46 22.2172C80.46 23.6816 79.6254 24.4128 77.9563 24.4109H77.0187V28.0005H75.3201L75.3303 19.9238ZM77.6811 23.3756C77.8489 23.394 78.0194 23.3807 78.1807 23.3367C78.342 23.2926 78.4903 23.2189 78.6153 23.1205C78.8101 22.8477 78.896 22.5273 78.8599 22.2084C78.8688 21.962 78.8414 21.7157 78.7784 21.4752C78.7542 21.3949 78.7117 21.3196 78.6533 21.2536C78.595 21.1877 78.522 21.1324 78.4387 21.0911C78.2029 20.9934 77.9422 20.949 77.6811 20.962H77.0221V23.3756H77.6811Z" fill="#AFB1B8"/>
<path d="M82.9094 19.9238H84.7337L86.6056 28.0005H85.0225L84.6522 26.1383H83.0249L82.6445 28.0005H81.0376L82.9094 19.9238ZM84.4687 25.2027L83.8335 21.8125L83.1982 25.2027H84.4687Z" fill="#AFB1B8"/>
<path d="M88.1173 19.9238H89.3063L91.5825 24.5311V19.9238H92.9923V28.0005H91.861L89.5713 23.1909V28.0005H88.1139L88.1173 19.9238Z" fill="#AFB1B8"/>
<path d="M96.2945 24.9204L94.4022 19.9346H95.9955L97.1506 23.1373L98.2343 19.9346H99.7936L97.9251 24.9204V28H96.2945V24.9204Z" fill="#AFB1B8"/>
<path d="M56.0477 31.5312V31.9536H54.6617V35.2355H54.0807V31.9536H52.6879V31.5312H56.0477Z" fill="#AFB1B8"/>
<path d="M60.3927 35.2363H59.9442C59.8987 35.2388 59.8538 35.2262 59.8185 35.2011C59.7846 35.1796 59.7587 35.1501 59.7438 35.1161L59.3429 34.2362H57.4201L57.0192 35.1161C57.0078 35.1529 56.9869 35.187 56.958 35.2158C56.9225 35.2403 56.8778 35.2529 56.8324 35.251H56.3839L58.0825 31.5469H58.6737L60.3927 35.2363ZM57.5797 33.8608H59.1833L58.5038 32.3534C58.4537 32.2394 58.4117 32.1228 58.3781 32.0044C58.3543 32.0748 58.3339 32.1422 58.3136 32.2009L58.2524 32.3563L57.5797 33.8608Z" fill="#AFB1B8"/>
<path d="M63.3212 34.8724C63.4275 34.8772 63.5341 34.8772 63.6405 34.8724C63.7323 34.8642 63.8232 34.8495 63.9123 34.8284C63.9955 34.8107 64.0772 34.7882 64.1569 34.7609C64.2316 34.7345 64.3064 34.7022 64.3845 34.67V33.8369H63.705C63.6882 33.8378 63.6714 33.8356 63.6556 33.8305C63.6399 33.8255 63.6255 33.8177 63.6133 33.8076C63.6022 33.7993 63.5933 33.7889 63.5875 33.7772C63.5816 33.7655 63.5788 33.7529 63.5794 33.7401V33.4556H64.8975V34.8753C64.7899 34.9417 64.6763 35.0006 64.5577 35.0513C64.4366 35.1029 64.3104 35.1451 64.1807 35.1774C64.0417 35.2127 63.8997 35.2382 63.756 35.2537C63.5913 35.2695 63.4257 35.2773 63.26 35.2771C62.967 35.2793 62.6763 35.2325 62.4039 35.1393C62.1496 35.051 61.9185 34.9193 61.7245 34.7521C61.5353 34.5832 61.3864 34.3839 61.2862 34.1655C61.1792 33.9199 61.1261 33.6593 61.13 33.397C61.1264 33.133 61.1782 32.8706 61.2828 32.6226C61.3805 32.4031 61.5297 32.2033 61.7211 32.036C61.9149 31.8693 62.1461 31.7386 62.4005 31.6517C62.6914 31.5572 63.0002 31.5105 63.311 31.5138C63.4691 31.5137 63.627 31.5245 63.7832 31.5461C63.9213 31.5655 64.0567 31.597 64.1875 31.64C64.3063 31.6785 64.4202 31.7277 64.5272 31.7866C64.6313 31.8445 64.7301 31.9092 64.8227 31.9802L64.6597 32.209C64.6469 32.2299 64.6279 32.2475 64.6046 32.2598C64.5813 32.2722 64.5545 32.279 64.5272 32.2794C64.4896 32.2784 64.4531 32.2682 64.4219 32.2501C64.3709 32.2266 64.3165 32.1973 64.2554 32.1621C64.1832 32.123 64.107 32.0896 64.0278 32.0624C63.9265 32.0273 63.822 31.9998 63.7152 31.9802C63.5729 31.9576 63.4285 31.9468 63.2838 31.948C63.0597 31.9458 62.8371 31.9807 62.6281 32.0506C62.4391 32.1161 62.2687 32.2162 62.1287 32.3439C61.9879 32.4771 61.8804 32.6339 61.8128 32.8045C61.661 33.2056 61.661 33.6381 61.8128 34.0393C61.8871 34.2135 62.0029 34.3724 62.1525 34.5057C62.2918 34.6328 62.4609 34.7328 62.6485 34.799C62.8645 34.8631 63.0935 34.888 63.3212 34.8724Z" fill="#AFB1B8"/>
<path d="M68.7363 34.8132H70.5912V35.2355H68.1689V31.5312H68.7499L68.7363 34.8132Z" fill="#AFB1B8"/>
<path d="M72.5208 35.2355H71.9398V31.5312H72.5208V35.2355Z" fill="#AFB1B8"/>
<path d="M74.6814 31.5489C74.7159 31.5659 74.746 31.5888 74.7697 31.6163L77.253 34.4086C77.2497 34.3647 77.2497 34.3206 77.253 34.2767C77.253 34.2356 77.253 34.1945 77.253 34.1564V31.5166H77.7592V35.2358H77.4671C77.4238 35.2388 77.3804 35.2317 77.3414 35.2153C77.3061 35.1968 77.275 35.1729 77.2496 35.1449L74.7697 32.3555C74.7697 32.3995 74.7697 32.4405 74.7697 32.4816C74.7697 32.5227 74.7697 32.5608 74.7697 32.596V35.2358H74.2839V31.5313H74.5863C74.6191 31.5313 74.6515 31.5373 74.6814 31.5489Z" fill="#AFB1B8"/>
<path d="M82.0364 31.5312V31.9389H79.9777V33.162H81.6457V33.555H79.9777V34.8191H82.0364V35.2268H79.3798V31.5312H82.0364Z" fill="#AFB1B8"/>
<path d="M21.1618 8.65538L46.9568 14.9787V37.1367L21.1618 30.8163V8.65538ZM19.5073 6.7666V31.8927L48.6079 39.0284V13.9053L19.5073 6.7666Z" fill="#AFB1B8"/>
<path d="M35.1039 50.6919L6 43.5502V18.4268L35.1039 25.5655V50.6919Z" fill="#AFB1B8"/>
<path d="M19.9897 8.37086L45.4484 14.6149L34.6215 23.9648L9.1594 17.7178L19.9897 8.37086ZM19.5073 6.7666L6 18.4276L35.1039 25.5661L48.6078 13.9051L19.5073 6.7666Z" fill="#AFB1B8"/>
<path d="M36.7415 49.2786L48.6078 39.0314L36.7415 36.1191V49.2786Z" fill="#AFB1B8"/>
</symbol>



<symbol viewBox="0 0 20 20" id="facebook">
	<path d="M13.3309 3.32083H15.1567V0.140833C14.8417 0.0975 13.7584 0 12.4967 0C9.86422 0 8.06088 1.65583 8.06088 4.69917V7.5H5.15588V11.055H8.06088V20H11.6226V11.0558H14.4101L14.8526 7.50083H11.6217V5.05167C11.6226 4.02417 11.8992 3.32083 13.3309 3.32083Z" />
</symbol>

<symbol viewBox="0 0 20 20" id="instagram">
	<path d="M19.9804 5.88005C19.9336 4.81738 19.7617 4.0868 19.5156 3.45374C19.2616 2.78176 18.8709 2.18014 18.359 1.68002C17.8589 1.1721 17.2533 0.777435 16.5891 0.527447C15.9524 0.281274 15.2256 0.109427 14.163 0.0625732C13.0924 0.0117516 12.7525 0 10.0371 0C7.32173 0 6.98185 0.0117516 5.91521 0.0586052C4.85253 0.105459 4.12195 0.277459 3.48904 0.523479C2.81692 0.777435 2.2153 1.16814 1.71517 1.68002C1.20726 2.18014 0.812743 2.78573 0.562603 3.44992C0.31643 4.0868 0.144583 4.81341 0.0977294 5.87609C0.0469078 6.9467 0.0351562 7.28658 0.0351562 10.002C0.0351562 12.7173 0.0469078 13.0572 0.0937614 14.1239C0.140615 15.1865 0.312615 15.9171 0.558787 16.5502C0.812743 17.2221 1.20726 17.8238 1.71517 18.3239C2.2153 18.8318 2.82088 19.2265 3.48508 19.4765C4.12195 19.7226 4.84856 19.8945 5.91139 19.9413C6.97788 19.9883 7.31791 19.9999 10.0333 19.9999C12.7487 19.9999 13.0885 19.9883 14.1552 19.9413C15.2179 19.8945 15.9484 19.7226 16.5813 19.4765C17.9254 18.9568 18.9881 17.8941 19.5078 16.5502C19.7538 15.9133 19.9258 15.1865 19.9727 14.1239C20.0195 13.0572 20.0313 12.7173 20.0313 10.002C20.0313 7.28658 20.0273 6.9467 19.9804 5.88005ZM18.1794 14.0457C18.1364 15.0225 17.9723 15.5499 17.8356 15.9015C17.4995 16.7728 16.808 17.4643 15.9367 17.8004C15.5851 17.9372 15.0538 18.1012 14.0809 18.1441C13.026 18.1911 12.7096 18.2027 10.0411 18.2027C7.37255 18.2027 7.05221 18.1911 6.00113 18.1441C5.02438 18.1012 4.49693 17.9372 4.1453 17.8004C3.71171 17.6402 3.31704 17.3862 2.9967 17.0541C2.6646 16.7298 2.41065 16.3391 2.2504 15.9055C2.11365 15.5539 1.94959 15.0225 1.90671 14.0497C1.8597 12.9948 1.8481 12.6783 1.8481 10.0097C1.8481 7.34122 1.8597 7.02087 1.90671 5.96995C1.94959 4.99319 2.11365 4.46575 2.2504 4.11412C2.41065 3.68038 2.6646 3.28586 3.00067 2.96536C3.32483 2.63327 3.71553 2.37931 4.14927 2.21921C4.5009 2.08247 5.03231 1.9184 6.0051 1.87537C7.05999 1.82851 7.37652 1.81676 10.0449 1.81676C12.7174 1.81676 13.0337 1.82851 14.0848 1.87537C15.0616 1.9184 15.589 2.08247 15.9407 2.21921C16.3742 2.37931 16.7689 2.63327 17.0893 2.96536C17.4213 3.28967 17.6753 3.68038 17.8356 4.11412C17.9723 4.46575 18.1364 4.99701 18.1794 5.96995C18.2263 7.02484 18.238 7.34122 18.238 10.0097C18.238 12.6783 18.2263 12.9908 18.1794 14.0457Z" />
	<path d="M10.0371 4.86426C7.20074 4.86426 4.89941 7.16543 4.89941 10.002C4.89941 12.8385 7.20074 15.1397 10.0371 15.1397C12.8737 15.1397 15.1749 12.8385 15.1749 10.002C15.1749 7.16543 12.8737 4.86426 10.0371 4.86426ZM10.0371 13.3347C8.19702 13.3347 6.70442 11.8422 6.70442 10.002C6.70442 8.16172 8.19702 6.66927 10.0371 6.66927C11.8774 6.66927 13.3698 8.16172 13.3698 10.002C13.3698 11.8422 11.8774 13.3347 10.0371 13.3347Z" />
	<path d="M16.5775 4.66134C16.5775 5.3237 16.0404 5.86076 15.3779 5.86076C14.7155 5.86076 14.1785 5.3237 14.1785 4.66134C14.1785 3.99882 14.7155 3.46191 15.3779 3.46191C16.0404 3.46191 16.5775 3.99882 16.5775 4.66134Z"/>
</symbol>

<symbol viewBox="0 0 20 20" id="linkedin">
	<path d="M19.9951 19.9999V19.999H20.0001V12.664C20.0001 9.07569 19.2276 6.31152 15.0326 6.31152C13.0159 6.31152 11.6626 7.41819 11.1101 8.46736H11.0517V6.64652H7.07422V19.999H11.2159V13.3874C11.2159 11.6465 11.5459 9.96319 13.7017 9.96319C15.8259 9.96319 15.8576 11.9499 15.8576 13.499V19.9999H19.9951Z" />
	<path d="M0.329956 6.64746H4.47662V20H0.329956V6.64746Z" />
	<path d="M2.40167 0C1.07583 0 0 1.07583 0 2.40167C0 3.7275 1.07583 4.82583 2.40167 4.82583C3.7275 4.82583 4.80333 3.7275 4.80333 2.40167C4.8025 1.07583 3.72667 0 2.40167 0V0Z"/>
</symbol>

<symbol  viewBox="0 0 20 20" id="twitter">
	<path d="M20 3.79875C19.2563 4.125 18.4637 4.34125 17.6375 4.44625C18.4875 3.93875 19.1363 3.14125 19.4412 2.18C18.6488 2.6525 17.7738 2.98625 16.8412 3.1725C16.0887 2.37125 15.0162 1.875 13.8462 1.875C11.5763 1.875 9.74875 3.7175 9.74875 5.97625C9.74875 6.30125 9.77625 6.61375 9.84375 6.91125C6.435 6.745 3.41875 5.11125 1.3925 2.6225C1.03875 3.23625 0.83125 3.93875 0.83125 4.695C0.83125 6.115 1.5625 7.37375 2.6525 8.1025C1.99375 8.09 1.3475 7.89875 0.8 7.5975C0.8 7.61 0.8 7.62625 0.8 7.6425C0.8 9.635 2.22125 11.29 4.085 11.6712C3.75125 11.7625 3.3875 11.8062 3.01 11.8062C2.7475 11.8062 2.4825 11.7913 2.23375 11.7362C2.765 13.36 4.2725 14.5538 6.065 14.5925C4.67 15.6838 2.89875 16.3412 0.98125 16.3412C0.645 16.3412 0.3225 16.3263 0 16.285C1.81625 17.4563 3.96875 18.125 6.29 18.125C13.835 18.125 17.96 11.875 17.96 6.4575C17.96 6.27625 17.9538 6.10125 17.945 5.9275C18.7588 5.35 19.4425 4.62875 20 3.79875Z"/>
</symbol>

</svg>